<svg width="45" height="40" viewBox="0 0 45 40" fill="none" xmlns="http://www.w3.org/2000/svg">
<circle cx="16" cy="24" r="16" fill="#C9E514"/>
<path d="M16.0977 33.2559C16.0977 34.2676 15.8333 35.1562 15.3047 35.9219C14.7852 36.6875 14.0788 37.2845 13.1855 37.7129C12.3014 38.1413 11.3125 38.3555 10.2188 38.3555C9.38932 38.3555 8.76042 38.2734 8.33203 38.1094C7.91276 37.9544 7.56641 37.7995 7.29297 37.6445C7.02865 37.4805 6.71419 37.3984 6.34961 37.3984C6.03971 37.3984 5.78906 37.485 5.59766 37.6582C5.40625 37.8314 5.23307 38.0638 5.07812 38.3555H4.16211V32.0391H5.13281C5.21484 32.8138 5.45638 33.6022 5.85742 34.4043C6.26758 35.1973 6.8418 35.8626 7.58008 36.4004C8.31836 36.9382 9.2207 37.207 10.2871 37.207C11.0163 37.207 11.6634 37.002 12.2285 36.5918C12.7936 36.1816 13.0762 35.612 13.0762 34.8828C13.0762 34.2266 12.8665 33.6615 12.4473 33.1875C12.028 32.7044 11.4857 32.2715 10.8203 31.8887C10.1549 31.4967 9.44857 31.1094 8.70117 30.7266C7.95378 30.3346 7.2474 29.9108 6.58203 29.4551C5.91667 28.9993 5.37435 28.4616 4.95508 27.8418C4.53581 27.222 4.32617 26.4837 4.32617 25.627C4.32617 24.6973 4.54948 23.877 4.99609 23.166C5.44271 22.446 6.0625 21.8854 6.85547 21.4844C7.64844 21.0742 8.55534 20.8691 9.57617 20.8691C10.3053 20.8691 10.9069 20.9648 11.3809 21.1562C11.8639 21.3385 12.2741 21.5254 12.6113 21.7168C12.9486 21.8991 13.2676 21.9902 13.5684 21.9902C13.7871 21.9902 13.9512 21.8809 14.0605 21.6621C14.179 21.4434 14.2611 21.179 14.3066 20.8691H15.25V27.1035H14.2246C14.1243 26.0736 13.8464 25.1849 13.3906 24.4375C12.9349 23.681 12.3743 23.0977 11.709 22.6875C11.0527 22.2773 10.3646 22.0723 9.64453 22.0723C8.97917 22.0723 8.40039 22.2773 7.9082 22.6875C7.41602 23.0885 7.16992 23.6217 7.16992 24.2871C7.16992 24.8613 7.38411 25.3626 7.8125 25.791C8.24089 26.2194 8.79232 26.6204 9.4668 26.9941C10.1504 27.3587 10.8704 27.7324 11.627 28.1152C12.3926 28.4889 13.1126 28.9082 13.7871 29.373C14.4707 29.8379 15.0267 30.3848 15.4551 31.0137C15.8835 31.6426 16.0977 32.39 16.0977 33.2559ZM31.3008 38H25.1348V37.0156C25.6634 37.0156 26.0189 36.929 26.2012 36.7559C26.3926 36.5827 26.4883 36.0905 26.4883 35.2793V30.8086C26.4883 29.9883 26.3835 29.4004 26.1738 29.0449C25.9642 28.6895 25.5996 28.5117 25.0801 28.5117C24.7428 28.5117 24.3646 28.6758 23.9453 29.0039C23.5352 29.332 23.1432 29.6966 22.7695 30.0977V35.2656C22.7695 36.013 22.8607 36.4915 23.043 36.7012C23.2344 36.9108 23.5898 37.0156 24.1094 37.0156V38H17.834V37.0156C18.4264 37.0156 18.8092 36.8971 18.9824 36.6602C19.1556 36.4141 19.2422 35.9492 19.2422 35.2656V24.2188C19.2422 23.5716 19.1784 23.1341 19.0508 22.9062C18.9323 22.6693 18.75 22.5508 18.5039 22.5508C18.2122 22.5508 17.916 22.61 17.6152 22.7285L17.1914 21.8945L21.7852 20.4316H22.7695V28.7031C23.2526 28.2656 23.6901 27.8691 24.082 27.5137C24.4831 27.1491 24.9069 26.862 25.3535 26.6523C25.8092 26.4427 26.3516 26.3379 26.9805 26.3379C27.7917 26.3379 28.416 26.5521 28.8535 26.9805C29.291 27.4089 29.5918 27.9512 29.7559 28.6074C29.929 29.2546 30.0156 29.9199 30.0156 30.6035V35.2656C30.0156 35.9857 30.1068 36.4596 30.2891 36.6875C30.4714 36.9062 30.8086 37.0156 31.3008 37.0156V38Z" fill="black"/>
<path d="M37.6719 36.25C37.6719 36.806 37.4668 37.2891 37.0566 37.6992C36.6465 38.1003 36.1589 38.3008 35.5938 38.3008C35.0378 38.3008 34.5547 38.1003 34.1445 37.6992C33.7435 37.2891 33.543 36.806 33.543 36.25C33.543 35.6849 33.7435 35.2064 34.1445 34.8145C34.5547 34.4134 35.0378 34.2129 35.5938 34.2129C36.1589 34.2129 36.6465 34.4134 37.0566 34.8145C37.4668 35.2064 37.6719 35.6849 37.6719 36.25Z" fill="#C9E514"/>
</svg>
