<svg width="37" height="37" viewBox="0 0 37 37" fill="none" xmlns="http://www.w3.org/2000/svg">
<path d="M9.01325 34C5.91923 30.8233 4 26.3991 4 21.5061C4 17.4864 5.2952 13.7832 7.47289 10.8281C10.5331 6.67536 15.3361 4 20.7364 4C26.1368 4 30.9398 6.67536 34 10.8281" stroke="#9412F9" stroke-width="7"/>
<path d="M11.405 31.4933C8.82298 29.0371 7.17017 25.5653 7.06815 21.6803C6.98433 18.4888 7.96026 15.5208 9.66936 13.128C12.0711 9.76545 15.9207 7.5387 20.3118 7.42338C24.7029 7.30806 28.6641 9.3297 31.239 12.5616" stroke="#29ACC9" stroke-width="7"/>
<path d="M13.5667 29.0539C11.6032 27.1914 10.3464 24.5586 10.269 21.6123C10.2054 19.1919 10.9478 16.9411 12.2477 15.1263C14.0744 12.5761 17.0022 10.8872 20.3416 10.7995C23.6811 10.7118 26.6935 12.2447 28.6515 14.6955" stroke="#EDE41D" stroke-width="7"/>
<path d="M15.937 26.9207C14.5889 25.5923 13.725 23.7157 13.6699 21.6166C13.6246 19.8921 14.1322 18.289 15.0226 16.997C16.2738 15.1814 18.2808 13.9802 20.5713 13.92C22.8618 13.8599 24.929 14.9541 26.2738 16.7016" stroke="#CE3838" stroke-width="7"/>
<path d="M22.7507 5.7998L23.4453 8.44259L25.3008 9.9998L22.9008 9.0998L20.8008 9.9998L22.3008 8.4998L22.7507 5.7998Z" fill="white"/>
<path d="M25.2341 5.7998L25.5318 6.93243L26.1984 7.5998L25.2342 7.33314L24.3984 7.5998L24.9364 6.93243L25.2341 5.7998Z" fill="white"/>
</svg>
